<svg width="32" height="33" viewBox="0 0 32 33" fill="none" xmlns="http://www.w3.org/2000/svg">
<path d="M13.3268 28.7374C8.58687 27.7271 4.84855 23.9116 3.86122 19.0711C2.30035 11.4317 7.47254 4.64584 14.4391 3.75472C15.3322 3.63967 15.998 2.86151 15.998 1.94319C15.998 0.838708 15.0455 -0.00848345 13.9721 0.129577C6.02023 1.15667 -0.11266 8.14338 1.58686e-06 16.5714C0.120857 25.3717 7.15299 32.5529 15.7706 32.6764C24.0236 32.7935 30.8652 26.5306 31.871 18.408C32.0061 17.3119 31.1786 16.3392 30.095 16.3392C29.1958 16.3392 28.4317 17.0211 28.3211 17.931C27.4485 25.0454 20.8035 30.3293 13.3248 28.7353L13.3268 28.7374Z" fill="#630A37"/>
<path d="M29.9106 14.2663C31.0639 14.2663 31.998 13.3124 31.998 12.1347V3.87825C32 1.73622 30.2998 0 28.2023 0H20.1173C18.964 0 18.03 0.953874 18.03 2.13157C18.03 3.07708 18.6404 3.90754 19.5273 4.17529C23.5483 5.39065 26.7193 8.6288 27.9094 12.7351C28.1716 13.6408 28.9848 14.2642 29.9106 14.2642V14.2663Z" fill="#630A37"/>
</svg>
